<svg xmlns="http://www.w3.org/2000/svg" xmlns:xlink="http://www.w3.org/1999/xlink" width="810" viewBox="0 0 810 810" height="810" version="1.0"><defs><clipPath id="a"><path d="M 389 16.007812 L 622 16.007812 L 622 85 L 389 85 Z M 389 16.007812"/></clipPath><clipPath id="b"><path d="M 318 23 L 624.445312 23 L 624.445312 390 L 318 390 Z M 318 23"/></clipPath><clipPath id="c"><path d="M 190.195312 56 L 419 56 L 419 373 L 190.195312 373 Z M 190.195312 56"/></clipPath><clipPath id="d"><path d="M 246 129 L 528 129 L 528 480.257812 L 246 480.257812 Z M 246 129"/></clipPath><clipPath id="f"><path d="M 191 302 L 574.945312 302 L 574.945312 793 L 191 793 Z M 191 302"/></clipPath><g id="e"><path d="M 16.578125 0 L 16.578125 -74.453125 L 2.390625 -68.703125 L 2.390625 -86.390625 L 21.5 -96.65625 L 35.96875 -96.65625 L 35.96875 0 Z M 16.578125 0"/></g></defs><path fill="#DCFFFF" d="M 404.882812 16.007812 C 190.113281 16.007812 16.007812 190.113281 16.007812 404.882812 C 16.007812 619.652344 190.113281 793.757812 404.882812 793.757812 C 619.652344 793.757812 793.757812 619.652344 793.757812 404.882812 C 793.757812 190.113281 619.652344 16.007812 404.882812 16.007812 Z M 404.882812 16.007812"/><g clip-path="url(#a)"><path fill="#D3D2D2" d="M 619.289062 84.777344 L 404.613281 23.496094 L 395.105469 56.847656 L 389.554688 56.847656 L 401.1875 16.015625 L 621.007812 78.753906 L 619.289062 84.777344"/></g><g clip-path="url(#b)"><path fill="#FFF" d="M 538.03125 389.480469 L 318.21875 326.742188 L 404.613281 23.496094 L 624.425781 86.246094 L 538.03125 389.480469"/></g><path fill="#42A3AB" d="M 493.785156 95.179688 L 417.488281 73.402344 L 423.007812 54.023438 L 499.304688 75.796875 L 493.785156 95.179688"/><path fill="#D3D2D2" d="M 490.734375 102.316406 L 415.378906 80.808594 L 412.617188 90.496094 L 487.972656 112.011719 L 490.734375 102.316406"/><path fill="#D3D2D2" d="M 484.933594 122.683594 L 409.578125 101.167969 L 406.816406 110.863281 L 482.171875 132.371094 L 484.933594 122.683594"/><path fill="#D3D2D2" d="M 480.167969 139.417969 L 404.808594 117.902344 L 402.046875 127.601562 L 477.402344 149.113281 L 480.167969 139.417969"/><path fill="#D3D2D2" d="M 474.261719 160.144531 L 398.902344 138.632812 L 396.140625 148.320312 L 471.5 169.832031 L 474.261719 160.144531"/><path fill="#D3D2D2" d="M 540.742188 280.542969 L 372.179688 232.429688 L 374.941406 222.742188 L 543.503906 270.855469 L 540.742188 280.542969"/><path fill="#D3D2D2" d="M 533.925781 304.457031 L 365.363281 256.34375 L 368.125 246.65625 L 536.6875 294.769531 L 533.925781 304.457031"/><path fill="#F3D28B" d="M 402.007812 313.816406 L 352.980469 299.820312 L 363.503906 262.894531 L 412.527344 276.890625 L 402.007812 313.816406"/><path fill="#F3D28B" d="M 461.773438 330.875 L 412.742188 316.878906 L 423.261719 279.953125 L 472.292969 293.949219 L 461.773438 330.875"/><path fill="#F3D28B" d="M 521.542969 347.933594 L 472.511719 333.941406 L 483.03125 297.011719 L 532.0625 311.007812 L 521.542969 347.933594"/><path fill="#D3D2D2" d="M 559.253906 215.5625 L 497.753906 198.007812 L 500.507812 188.320312 L 562.015625 205.875 L 559.253906 215.5625"/><path fill="#D3D2D2" d="M 554.359375 232.734375 L 492.859375 215.179688 L 495.625 205.484375 L 557.121094 223.039062 L 554.359375 232.734375"/><path fill="#D3D2D2" d="M 549.472656 249.902344 L 487.964844 232.347656 L 490.726562 222.660156 L 552.234375 240.214844 L 549.472656 249.902344"/><path fill="#65BED9" d="M 477.71875 229.425781 L 380.910156 201.789062 L 393.453125 157.757812 L 490.261719 185.390625 L 477.71875 229.425781"/><path fill="#65BED9" d="M 564.699219 196.4375 L 492.953125 175.960938 L 519.816406 81.65625 L 591.570312 102.132812 L 564.699219 196.4375"/><path fill="#29242C" d="M 564.582031 196.402344 L 568.316406 183.304688 C 565.332031 179.03125 546.796875 167.050781 546.796875 167.050781 L 522.445312 160.101562 C 522.445312 160.101562 503.285156 159.773438 496.980469 161.820312 L 492.953125 175.960938 L 564.582031 196.402344"/><path fill="#FFF" d="M 534.53125 187.820312 L 548.292969 168.054688 L 520.429688 160.101562 L 523.042969 184.550781 L 534.53125 187.820312"/><path fill="#1B171B" d="M 533.296875 187.472656 L 535.378906 169.339844 L 531.253906 168.152344 L 523.460938 184.664062 L 533.296875 187.472656"/><path fill="#D5835C" d="M 522.574219 159.65625 C 522.574219 159.65625 528.789062 167.453125 533.164062 168.703125 C 537.535156 169.949219 546.925781 166.605469 546.925781 166.605469 L 548.105469 158.570312 L 525.945312 152.238281 L 522.574219 159.65625"/><path fill="#FFF" d="M 522.113281 156.113281 L 520.429688 160.101562 C 520.429688 160.101562 528.566406 168.214844 532.941406 169.46875 C 537.3125 170.71875 548.292969 168.054688 548.292969 168.054688 L 548.738281 164.210938 L 533.417969 167.78125 L 522.113281 156.113281"/><path fill="#F9AA78" d="M 569.839844 124.023438 C 572.535156 114.554688 567.324219 101.898438 552.84375 97.757812 C 538.359375 93.625 527.261719 101.628906 524.5625 111.101562 C 524.417969 111.59375 518.191406 137.730469 519.320312 144.445312 C 520.445312 151.15625 527.457031 162.078125 534.363281 164.078125 C 541.914062 166.265625 552.648438 161.3125 557.761719 155.414062 C 562.875 149.523438 569.839844 124.023438 569.839844 124.023438"/><path fill="#F9AA78" d="M 524.457031 125.648438 C 524.648438 123.359375 523.167969 120.765625 520.167969 120.574219 C 517.171875 120.390625 516.417969 123.023438 516.230469 125.304688 C 516.21875 125.421875 515.941406 131.664062 516.410156 133.125 C 516.871094 134.585938 517.386719 137.257812 519.558594 137.15625 C 521 137.089844 522.429688 134.976562 523.222656 133.375 C 524.019531 131.78125 524.457031 125.648438 524.457031 125.648438"/><path fill="#F9AA78" d="M 563.183594 136.699219 C 564.222656 134.664062 566.851562 133.238281 569.496094 134.660156 C 572.140625 136.078125 571.644531 138.871094 570.601562 140.90625 C 570.546875 141.011719 567.507812 145.992188 566.332031 147.460938 C 565.367188 148.664062 563.097656 150.628906 561.292969 149.199219 C 560.160156 148.304688 559.980469 145.695312 560.15625 143.921875 C 560.324219 142.140625 563.183594 136.699219 563.183594 136.699219"/><path fill="#261617" d="M 573.636719 121.351562 C 574.015625 114.433594 567.996094 99.527344 553.515625 95.394531 C 539.03125 91.261719 528.15625 98.203125 523.929688 106.125 C 520.667969 112.226562 519.835938 115.984375 518.832031 120.714844 C 520.355469 120.503906 521.308594 120.464844 522.304688 121.230469 C 521.726562 124.054688 521.078125 127.371094 520.554688 130.417969 C 520.980469 131.777344 521.894531 131.667969 521.894531 131.667969 L 529.417969 111.847656 C 529.417969 111.847656 555.214844 135.84375 566.332031 122.0625 C 567.945312 120.0625 562.292969 142.492188 562.292969 142.492188 C 562.292969 142.492188 563.128906 143.839844 564.082031 142.214844 C 565.074219 139.484375 565.613281 137.269531 566.613281 134.777344 C 567.191406 133.335938 568.816406 134.351562 570.164062 135.101562 C 571.796875 131.386719 573.261719 128.277344 573.636719 121.351562"/><path fill="#1B171B" d="M 529.707031 167.332031 C 529.09375 169.472656 530.191406 171.660156 532.160156 172.222656 C 534.121094 172.78125 536.207031 171.496094 536.816406 169.363281 C 537.425781 167.21875 535.980469 167.722656 534.015625 167.160156 C 532.050781 166.605469 530.316406 165.195312 529.707031 167.332031"/><path fill="#CD8158" d="M 539.636719 146.207031 L 543.605469 132.28125 L 543.839844 144.019531 L 539.636719 146.207031"/><path fill="#CD8158" d="M 544.847656 154.5625 C 544.847656 154.5625 543.882812 154.496094 542.617188 154.460938 C 540.902344 154.410156 539.113281 153.5 537.515625 153.046875 C 536.113281 152.644531 534.132812 152.53125 532.839844 151.769531 C 531.632812 151.058594 530.582031 150.511719 530.488281 150.464844 C 530.585938 150.515625 531.804688 151.140625 533.085938 151.507812 C 534.429688 151.890625 535.660156 151.53125 537.773438 152.132812 C 539.886719 152.730469 540.859375 153.679688 542.167969 154.050781 C 543.46875 154.425781 544.847656 154.5625 544.847656 154.5625 M 530.488281 150.464844 C 530.484375 150.464844 530.484375 150.464844 530.484375 150.464844 C 530.484375 150.464844 530.484375 150.464844 530.488281 150.464844"/><path fill="#261617" d="M 554.382812 140.453125 C 553.863281 141.664062 552.464844 142.214844 551.261719 141.695312 C 550.058594 141.175781 549.503906 139.777344 550.015625 138.570312 C 550.535156 137.367188 551.933594 136.8125 553.136719 137.332031 C 554.339844 137.855469 554.898438 139.25 554.382812 140.453125"/><path fill="#261617" d="M 553.78125 138.304688 C 555.378906 138.992188 556.699219 139.902344 557.574219 140.8125 C 557.347656 139.550781 556.058594 138.167969 554.1875 137.363281 C 552.316406 136.550781 550.425781 136.5625 549.355469 137.269531 C 550.621094 137.28125 552.183594 137.617188 553.78125 138.304688"/><path fill="#261617" d="M 529.9375 133.550781 C 529.808594 134.855469 530.765625 136.023438 532.074219 136.144531 C 533.378906 136.269531 534.535156 135.308594 534.660156 134.007812 C 534.78125 132.699219 533.828125 131.539062 532.523438 131.414062 C 531.222656 131.289062 530.054688 132.242188 529.9375 133.550781"/><path fill="#261617" d="M 531.492188 131.957031 C 529.761719 131.792969 528.167969 131.945312 526.957031 132.324219 C 527.761719 131.332031 529.554688 130.742188 531.589844 130.929688 C 533.613281 131.125 535.269531 132.046875 535.867188 133.183594 C 534.753906 132.582031 533.21875 132.121094 531.492188 131.957031"/><path fill="#261617" d="M 558.222656 130.78125 C 556.410156 129.664062 553.964844 129.15625 553.695312 129.308594 C 553.421875 129.453125 552.511719 130.6875 552.847656 130.972656 C 553.183594 131.253906 554.546875 130.71875 557.28125 132.070312 C 559.109375 132.972656 560.976562 135.300781 561.484375 136.242188 C 561.359375 134.53125 560.519531 132.203125 558.222656 130.78125"/><path fill="#261617" d="M 532.429688 123.417969 C 534.5625 123.421875 536.902344 124.289062 537.058594 124.5625 C 537.210938 124.828125 537.335938 126.359375 536.898438 126.421875 C 536.464844 126.484375 535.59375 125.316406 532.554688 125.007812 C 530.523438 124.808594 527.710938 125.8125 526.78125 126.339844 C 527.789062 124.945312 529.730469 123.410156 532.429688 123.417969"/><path fill="#D3D2D2" d="M 278.835938 381.238281 L 196.265625 381.238281 L 196.265625 372.179688 L 277.214844 372.179688 L 278.835938 381.238281"/><path fill="#D3D2D2" d="M 418.792969 135.550781 L 418.792969 132.382812 L 424.839844 134.105469 L 424.839844 134.464844 L 418.792969 135.550781 M 424.839844 123.621094 L 418.792969 121.898438 L 418.792969 114.28125 L 424.839844 116.007812 L 424.839844 123.621094 M 424.839844 105.527344 L 418.792969 103.804688 L 418.792969 92.261719 L 424.839844 93.988281 L 424.839844 105.527344 M 424.839844 83.511719 L 418.792969 81.789062 L 418.792969 73.773438 L 424.839844 75.5 L 424.839844 83.511719 M 418.792969 68.8125 L 418.792969 65.914062 L 419.621094 65.914062 L 418.792969 68.8125"/><path fill="#37858D" d="M 424.839844 75.5 L 418.792969 73.773438 L 418.792969 68.8125 L 419.621094 65.914062 L 424.839844 65.914062 L 424.839844 75.5"/><path fill="#B0AEAF" d="M 424.839844 93.988281 L 418.792969 92.261719 L 418.792969 81.789062 L 424.839844 83.511719 L 424.839844 93.988281"/><path fill="#B0AEAF" d="M 424.839844 116.007812 L 418.792969 114.28125 L 418.792969 103.804688 L 424.839844 105.527344 L 424.839844 116.007812"/><path fill="#B0AEAF" d="M 424.839844 134.105469 L 418.792969 132.382812 L 418.792969 121.898438 L 424.839844 123.621094 L 424.839844 134.105469"/><g clip-path="url(#c)"><path fill="#FFF" d="M 190.214844 372.179688 L 418.792969 372.179688 L 418.792969 56.847656 L 190.214844 56.847656 Z M 190.214844 372.179688"/></g><path fill="#42A3AB" d="M 295.613281 101.308594 L 216.269531 101.308594 L 216.269531 81.15625 L 295.613281 81.15625 L 295.613281 101.308594"/><path fill="#D3D2D2" d="M 294.632812 109.011719 L 216.269531 109.011719 L 216.269531 119.089844 L 294.632812 119.089844 L 294.632812 109.011719"/><path fill="#D3D2D2" d="M 294.632812 130.1875 L 216.269531 130.1875 L 216.269531 140.257812 L 294.632812 140.257812 L 294.632812 130.1875"/><path fill="#D3D2D2" d="M 216.269531 157.660156 L 294.632812 157.660156 L 294.632812 147.589844 L 216.269531 147.589844 Z M 216.269531 157.660156"/><path fill="#D3D2D2" d="M 216.269531 179.214844 L 294.632812 179.214844 L 294.632812 169.144531 L 216.269531 169.144531 Z M 216.269531 179.214844"/><path fill="#D3D2D2" d="M 216.269531 266.675781 L 391.554688 266.675781 L 391.554688 256.597656 L 216.269531 256.597656 Z M 216.269531 266.675781"/><path fill="#D3D2D2" d="M 216.269531 291.542969 L 391.554688 291.542969 L 391.554688 281.464844 L 216.269531 281.464844 Z M 216.269531 291.542969"/><path fill="#F3D28B" d="M 216.269531 336.75 L 267.257812 336.75 L 267.257812 298.355469 L 216.269531 298.355469 Z M 216.269531 336.75"/><path fill="#F3D28B" d="M 278.417969 336.75 L 329.40625 336.75 L 329.40625 298.355469 L 278.417969 298.355469 Z M 278.417969 336.75"/><path fill="#F3D28B" d="M 340.570312 336.75 L 391.554688 336.75 L 391.554688 298.355469 L 340.570312 298.355469 Z M 340.570312 336.75"/><path fill="#D3D2D2" d="M 327.601562 199.105469 L 391.554688 199.105469 L 391.554688 189.027344 L 327.601562 189.027344 Z M 327.601562 199.105469"/><path fill="#D3D2D2" d="M 327.601562 216.957031 L 391.554688 216.957031 L 391.554688 206.886719 L 327.601562 206.886719 Z M 327.601562 216.957031"/><path fill="#D3D2D2" d="M 327.601562 234.816406 L 391.554688 234.816406 L 391.554688 224.738281 L 327.601562 224.738281 Z M 327.601562 234.816406"/><path fill="#65BED9" d="M 216.269531 234.816406 L 316.941406 234.816406 L 316.941406 189.027344 L 216.269531 189.027344 Z M 216.269531 234.816406"/><path fill="#F68722" d="M 316.941406 179.214844 L 391.554688 179.214844 L 391.554688 81.152344 L 316.941406 81.152344 Z M 316.941406 179.214844"/><path fill="#23837F" d="M 318.644531 179.214844 L 389.855469 179.214844 C 389.855469 179.214844 388.445312 155.742188 386.113281 153.117188 C 383.773438 150.496094 364.902344 144.742188 364.902344 144.742188 L 343.859375 144.742188 C 343.859375 144.742188 323.972656 150.054688 322.691406 153.117188 C 321.417969 156.179688 318.644531 179.214844 318.644531 179.214844"/><path fill="#7D412B" d="M 343.859375 144.363281 C 343.859375 144.363281 350.597656 149.171875 354.378906 149.171875 C 358.152344 149.171875 364.902344 144.363281 364.902344 144.363281 L 364.011719 137.667969 L 344.863281 137.667969 L 343.859375 144.363281"/><path fill="#175452" d="M 343.421875 141.066406 L 342.246094 145.207031 L 348.984375 153.1875 L 354.378906 149.171875 L 361.011719 153.886719 L 366.328125 145.207031 L 365.671875 141.066406 L 354.378906 148.378906 L 343.421875 141.066406"/><path fill="#9E5439" d="M 373.511719 105.117188 C 373.511719 96.933594 366.46875 88.003906 353.957031 88.003906 C 341.445312 88.003906 334.398438 96.933594 334.398438 105.117188 C 334.398438 105.542969 335.367188 127.839844 337.796875 132.945312 C 340.226562 138.058594 348.316406 145.183594 354.285156 145.207031 C 360.820312 145.234375 368.269531 138.824219 371.015625 132.945312 C 373.757812 127.074219 373.511719 105.117188 373.511719 105.117188"/><path fill="#261617" d="M 336.328125 127.015625 C 336.738281 129.601562 337.230469 131.75 337.796875 132.945312 C 340.226562 138.058594 348.316406 145.183594 354.285156 145.207031 C 360.820312 145.234375 368.269531 138.824219 371.015625 132.945312 C 371.628906 131.632812 372.089844 129.515625 372.441406 127.015625 C 372.441406 127.015625 370.605469 131.726562 369.121094 133.078125 C 367.636719 134.429688 363.566406 137.570312 361.273438 138.839844 C 358.929688 140.136719 351.601562 140.660156 347.152344 138.570312 C 345.722656 137.90625 341.148438 134.890625 340.0625 133.125 C 338.980469 131.355469 336.328125 127.015625 336.328125 127.015625"/><path fill="#9E5439" d="M 337.628906 116.761719 C 337.253906 114.886719 335.480469 113.15625 333.042969 113.6875 C 330.609375 114.222656 330.597656 116.492188 330.972656 118.359375 C 330.992188 118.457031 332.191406 123.507812 332.898438 124.570312 C 333.597656 125.632812 334.621094 127.648438 336.332031 127.074219 C 337.464844 126.695312 338.128906 124.679688 338.398438 123.21875 C 338.667969 121.761719 337.628906 116.761719 337.628906 116.761719"/><path fill="#9E5439" d="M 371.082031 116.761719 C 371.449219 114.886719 373.230469 113.15625 375.664062 113.6875 C 378.097656 114.222656 378.335938 116.558594 377.96875 118.425781 C 377.949219 118.523438 376.652344 123.195312 376.046875 124.636719 C 375.550781 125.816406 374.1875 127.90625 372.417969 127.175781 C 371.3125 126.71875 370.578125 124.679688 370.308594 123.21875 C 370.042969 121.761719 371.082031 116.761719 371.082031 116.761719"/><path fill="#261617" d="M 366.304688 135.382812 C 367.351562 135.210938 366.847656 136.160156 365.839844 137.109375 C 364.609375 138.265625 362.628906 139.417969 361.761719 138.558594 C 361.746094 135.648438 359.589844 132.058594 358.183594 131.332031 C 356.550781 130.472656 351.253906 130.242188 349.421875 131.636719 C 347.546875 133.058594 346.667969 136.421875 346.804688 138.96875 C 347.324219 140.535156 341 136.109375 343.273438 136.109375 C 344.890625 136.109375 346.988281 131.285156 348.542969 129.859375 C 350.636719 127.941406 358.503906 127.457031 360.140625 130.242188 C 361.273438 132.160156 363.984375 135.75 366.304688 135.382812"/><path fill="#AE684B" d="M 337.296875 107.742188 C 337.238281 107.742188 337.171875 107.71875 337.109375 107.667969 C 336.058594 106.835938 335.6875 100.113281 339.542969 95.246094 C 342.660156 91.3125 347.578125 89.800781 349.910156 89.800781 C 350.464844 89.800781 350.875 89.886719 351.074219 90.046875 C 352.117188 90.875 346.242188 92.636719 342.382812 97.503906 C 338.769531 102.066406 338.210938 107.742188 337.296875 107.742188"/><path fill="#84402B" d="M 353.753906 126.941406 L 353.753906 114.902344 L 356.785156 124.226562 L 353.753906 126.941406"/><path fill="#84402B" d="M 351.800781 134.710938 C 351.457031 134.710938 351.125 134.675781 350.828125 134.582031 C 349.925781 134.300781 349.15625 134.105469 349.042969 134.078125 C 349.167969 134.109375 350.054688 134.316406 350.941406 134.316406 C 351.898438 134.316406 352.640625 133.746094 354.148438 133.746094 C 355.648438 133.746094 356.46875 134.28125 357.394531 134.28125 C 358.328125 134.28125 359.261719 134.074219 359.261719 134.074219 C 359.261719 134.074219 358.609375 134.242188 357.773438 134.5 C 357.371094 134.625 356.933594 134.664062 356.496094 134.664062 C 355.699219 134.664062 354.875 134.53125 354.148438 134.53125 C 353.449219 134.53125 352.589844 134.710938 351.800781 134.710938 M 349.042969 134.078125 C 349.035156 134.074219 349.027344 134.074219 349.027344 134.074219 C 349.027344 134.074219 349.035156 134.074219 349.042969 134.078125"/><path fill="#261617" d="M 364.808594 116.113281 C 364.667969 117.191406 363.679688 117.957031 362.601562 117.816406 C 361.515625 117.671875 360.753906 116.683594 360.902344 115.601562 C 361.035156 114.523438 362.023438 113.761719 363.105469 113.898438 C 364.183594 114.042969 364.949219 115.03125 364.808594 116.113281"/><path fill="#261617" d="M 363.839844 114.535156 C 365.277344 114.714844 366.535156 115.140625 367.445312 115.671875 C 366.976562 114.714844 365.625 113.898438 363.953125 113.683594 C 362.273438 113.460938 360.761719 113.902344 360.070312 114.714844 C 361.085938 114.433594 362.40625 114.34375 363.839844 114.535156"/><path fill="#261617" d="M 343.707031 116.171875 C 343.90625 117.242188 344.929688 117.957031 346.003906 117.753906 C 347.078125 117.554688 347.785156 116.53125 347.582031 115.457031 C 347.390625 114.386719 346.359375 113.671875 345.289062 113.871094 C 344.21875 114.066406 343.503906 115.097656 343.707031 116.171875"/><path fill="#261617" d="M 344.585938 114.542969 C 343.167969 114.804688 341.933594 115.292969 341.046875 115.871094 C 341.464844 114.886719 342.765625 114.007812 344.433594 113.699219 C 346.097656 113.394531 347.625 113.75 348.363281 114.523438 C 347.332031 114.292969 346.003906 114.277344 344.585938 114.542969"/><path fill="#261617" d="M 365.679688 107.503906 C 363.976562 107.019531 361.910156 107.179688 361.726562 107.363281 C 361.542969 107.539062 361.09375 108.738281 361.429688 108.886719 C 361.761719 109.035156 362.71875 108.296875 365.21875 108.75 C 366.886719 109.050781 368.910156 110.492188 369.527344 111.128906 C 369.039062 109.785156 367.84375 108.117188 365.679688 107.503906"/><path fill="#261617" d="M 343.390625 107.503906 C 345.09375 107.019531 347.164062 107.179688 347.347656 107.363281 C 347.53125 107.539062 347.976562 108.738281 347.644531 108.886719 C 347.316406 109.035156 346.347656 108.296875 343.855469 108.75 C 342.1875 109.050781 340.164062 110.492188 339.542969 111.128906 C 340.035156 109.785156 341.230469 108.117188 343.390625 107.503906"/><path fill="#D3D2D2" d="M 296.21875 477.988281 L 278.835938 381.238281 L 424.839844 381.238281 L 424.839844 357.167969 L 511.183594 381.816406 L 521.183594 437.503906 L 296.21875 477.988281"/><path fill="#D3D2D2" d="M 511.183594 381.816406 L 424.839844 357.167969 L 424.839844 320.328125 L 461.773438 330.875 L 472.292969 293.949219 L 424.839844 280.402344 L 424.839844 273.320312 L 495.308594 293.4375 L 496.644531 300.898438 L 483.03125 297.011719 L 472.511719 333.941406 L 504.207031 342.988281 L 511.183594 381.816406 M 493.320312 282.386719 L 424.839844 262.84375 L 424.839844 247.457031 L 490.410156 266.175781 L 493.320312 282.386719 M 488.425781 255.136719 L 424.839844 236.984375 L 424.839844 214.328125 L 477.71875 229.425781 L 481.453125 216.3125 L 488.425781 255.136719 M 475.121094 181.066406 L 424.839844 166.71875 L 424.839844 156.511719 L 471.5 169.832031 L 472.480469 166.375 L 475.121094 181.066406 M 471.207031 159.269531 L 424.839844 146.039062 L 424.839844 134.464844 L 425.605469 134.324219 L 468.953125 146.695312 L 471.207031 159.269531 M 466.964844 135.648438 L 448.128906 130.269531 L 464.496094 127.324219 L 465.523438 127.617188 L 466.964844 135.648438"/><path fill="#B0AEAF" d="M 465.523438 127.617188 L 464.496094 127.324219 L 465.4375 127.15625 L 465.523438 127.617188"/><path fill="#B0AEAF" d="M 468.953125 146.695312 L 425.605469 134.324219 L 448.128906 130.269531 L 466.964844 135.648438 L 468.953125 146.695312"/><path fill="#B0AEAF" d="M 471.5 169.832031 L 424.839844 156.511719 L 424.839844 146.039062 L 471.207031 159.269531 L 472.480469 166.375 L 471.5 169.832031"/><path fill="#B0AEAF" d="M 490.410156 266.175781 L 424.839844 247.457031 L 424.839844 236.984375 L 488.425781 255.136719 L 490.410156 266.175781"/><path fill="#B0AEAF" d="M 495.308594 293.4375 L 424.839844 273.320312 L 424.839844 262.84375 L 493.320312 282.386719 L 495.308594 293.4375"/><path fill="#C8AD72" d="M 461.773438 330.875 L 424.839844 320.328125 L 424.839844 280.402344 L 472.292969 293.949219 L 461.773438 330.875"/><path fill="#C8AD72" d="M 504.207031 342.988281 L 472.511719 333.941406 L 483.03125 297.011719 L 496.644531 300.898438 L 504.207031 342.988281"/><path fill="#549CB3" d="M 477.71875 229.425781 L 424.839844 214.328125 L 424.839844 166.71875 L 475.121094 181.066406 L 481.453125 216.3125 L 477.71875 229.425781"/><path fill="#B0AEAF" d="M 424.839844 381.238281 L 278.835938 381.238281 L 277.214844 372.179688 L 418.792969 372.179688 L 418.792969 355.445312 L 424.839844 357.167969 L 424.839844 381.238281"/><path fill="#B0AEAF" d="M 424.839844 357.167969 L 418.792969 355.445312 L 418.792969 318.605469 L 424.839844 320.328125 L 424.839844 357.167969 M 418.792969 295.636719 L 418.792969 271.597656 L 424.839844 273.320312 L 424.839844 280.402344 L 423.261719 279.953125 L 418.792969 295.636719 M 424.839844 262.84375 L 418.792969 261.121094 L 418.792969 245.734375 L 424.839844 247.457031 L 424.839844 262.84375 M 424.839844 236.984375 L 418.792969 235.257812 L 418.792969 212.605469 L 424.839844 214.328125 L 424.839844 236.984375 M 424.839844 166.71875 L 418.792969 164.988281 L 418.792969 154.789062 L 424.839844 156.511719 L 424.839844 166.71875 M 424.839844 146.039062 L 418.792969 144.3125 L 418.792969 135.550781 L 424.839844 134.464844 L 424.839844 146.039062"/><path fill="#939192" d="M 424.839844 156.511719 L 418.792969 154.789062 L 418.792969 144.3125 L 424.839844 146.039062 L 424.839844 156.511719"/><path fill="#939192" d="M 424.839844 247.457031 L 418.792969 245.734375 L 418.792969 235.257812 L 424.839844 236.984375 L 424.839844 247.457031"/><path fill="#939192" d="M 424.839844 273.320312 L 418.792969 271.597656 L 418.792969 261.121094 L 424.839844 262.84375 L 424.839844 273.320312"/><path fill="#A68F5E" d="M 424.839844 320.328125 L 418.792969 318.605469 L 418.792969 295.636719 L 423.261719 279.953125 L 424.839844 280.402344 L 424.839844 320.328125"/><path fill="#468195" d="M 424.839844 214.328125 L 418.792969 212.605469 L 418.792969 164.988281 L 424.839844 166.71875 L 424.839844 214.328125"/><path fill="#D3D2D2" d="M 418.792969 372.179688 L 277.214844 372.179688 L 267.257812 316.761719 L 267.257812 298.355469 L 263.953125 298.355469 L 262.726562 291.542969 L 391.554688 291.542969 L 391.554688 281.464844 L 260.914062 281.464844 L 258.261719 266.675781 L 391.554688 266.675781 L 391.554688 256.601562 L 256.453125 256.601562 L 252.535156 234.816406 L 316.941406 234.816406 L 316.941406 189.027344 L 244.308594 189.027344 L 242.546875 179.214844 L 294.632812 179.214844 L 294.632812 169.144531 L 240.738281 169.144531 L 240.46875 167.640625 L 316.941406 153.882812 L 316.941406 179.214844 L 391.554688 179.214844 L 391.554688 140.453125 L 418.792969 135.550781 L 418.792969 372.179688 M 340.570312 298.355469 L 340.570312 336.75 L 391.554688 336.75 L 391.554688 298.355469 L 340.570312 298.355469 M 278.417969 298.355469 L 278.417969 336.75 L 329.40625 336.75 L 329.40625 298.355469 L 278.417969 298.355469 M 327.601562 224.738281 L 327.601562 234.816406 L 391.554688 234.816406 L 391.554688 224.738281 L 327.601562 224.738281 M 327.601562 206.886719 L 327.601562 216.957031 L 391.554688 216.957031 L 391.554688 206.886719 L 327.601562 206.886719 M 327.601562 189.027344 L 327.601562 199.105469 L 391.554688 199.105469 L 391.554688 189.027344 L 327.601562 189.027344"/><path fill="#B0AEAF" d="M 294.632812 179.214844 L 242.546875 179.214844 L 240.738281 169.144531 L 294.632812 169.144531 L 294.632812 179.214844"/><path fill="#B0AEAF" d="M 391.554688 266.675781 L 258.261719 266.675781 L 256.453125 256.601562 L 391.554688 256.601562 L 391.554688 266.675781"/><path fill="#B0AEAF" d="M 391.554688 291.542969 L 262.726562 291.542969 L 260.914062 281.464844 L 391.554688 281.464844 L 391.554688 291.542969"/><path fill="#C8AD72" d="M 267.257812 316.761719 L 263.953125 298.355469 L 267.257812 298.355469 L 267.257812 316.761719"/><path fill="#C8AD72" d="M 278.417969 336.75 L 329.40625 336.75 L 329.40625 298.355469 L 278.417969 298.355469 Z M 278.417969 336.75"/><path fill="#C8AD72" d="M 340.570312 336.75 L 391.554688 336.75 L 391.554688 298.355469 L 340.570312 298.355469 Z M 340.570312 336.75"/><path fill="#B0AEAF" d="M 327.601562 199.105469 L 391.554688 199.105469 L 391.554688 189.027344 L 327.601562 189.027344 Z M 327.601562 199.105469"/><path fill="#B0AEAF" d="M 327.601562 216.957031 L 391.554688 216.957031 L 391.554688 206.886719 L 327.601562 206.886719 Z M 327.601562 216.957031"/><path fill="#B0AEAF" d="M 327.601562 234.816406 L 391.554688 234.816406 L 391.554688 224.738281 L 327.601562 224.738281 Z M 327.601562 234.816406"/><path fill="#549CB3" d="M 316.941406 234.816406 L 252.535156 234.816406 L 244.308594 189.027344 L 316.941406 189.027344 L 316.941406 234.816406"/><path fill="#CB6E1C" d="M 391.554688 179.214844 L 389.855469 179.214844 C 389.855469 179.214844 388.445312 155.742188 386.113281 153.117188 C 384.167969 150.9375 370.765625 146.582031 366.320312 145.1875 L 366.289062 145 L 391.554688 140.453125 L 391.554688 179.214844 M 318.644531 179.214844 L 316.941406 179.214844 L 316.941406 153.882812 L 322.875 152.808594 C 322.792969 152.917969 322.734375 153.019531 322.691406 153.117188 C 321.417969 156.179688 318.644531 179.214844 318.644531 179.214844"/><path fill="#1D6C69" d="M 389.855469 179.214844 L 318.644531 179.214844 C 318.644531 179.214844 321.417969 156.179688 322.691406 153.117188 C 322.734375 153.019531 322.792969 152.917969 322.875 152.808594 L 345.261719 148.78125 L 348.984375 153.1875 L 354.378906 149.171875 L 361.011719 153.886719 L 366.328125 145.207031 L 366.320312 145.1875 C 370.765625 146.582031 384.167969 150.9375 386.113281 153.117188 C 388.445312 155.742188 389.855469 179.214844 389.855469 179.214844"/><path fill="#6A3624" d="M 354.378906 148.378906 L 352.917969 147.402344 L 357.027344 146.664062 L 354.378906 148.378906"/><path fill="#134746" d="M 361.011719 153.886719 L 354.378906 149.171875 L 348.984375 153.1875 L 345.261719 148.78125 L 352.917969 147.402344 L 354.378906 148.378906 L 357.027344 146.664062 L 366.289062 145 L 366.320312 145.1875 L 366.328125 145.207031 L 361.011719 153.886719"/><g clip-path="url(#d)"><path fill="#FFF" d="M 527.019531 439.769531 L 302.046875 480.253906 L 246.300781 169.90625 L 471.273438 129.417969 L 527.019531 439.769531"/></g><path fill="#42A3AB" d="M 357.894531 194.988281 L 279.800781 209.039062 L 276.246094 189.207031 L 354.332031 175.15625 L 357.894531 194.988281"/><path fill="#D3D2D2" d="M 358.292969 202.742188 L 281.167969 216.625 L 282.945312 226.542969 L 360.074219 212.664062 L 358.292969 202.742188"/><path fill="#D3D2D2" d="M 362.03125 223.582031 L 284.914062 237.46875 L 286.691406 247.378906 L 363.816406 233.503906 L 362.03125 223.582031"/><path fill="#D3D2D2" d="M 365.113281 240.714844 L 287.988281 254.589844 L 289.773438 264.511719 L 366.890625 250.632812 L 365.113281 240.714844"/><path fill="#D3D2D2" d="M 368.917969 261.925781 L 291.800781 275.804688 L 293.578125 285.722656 L 370.707031 271.839844 L 368.917969 261.925781"/><path fill="#D3D2D2" d="M 481.554688 340.753906 L 309.042969 371.800781 L 307.257812 361.882812 L 479.777344 330.832031 L 481.554688 340.753906"/><path fill="#D3D2D2" d="M 485.957031 365.226562 L 313.4375 396.28125 L 311.65625 386.359375 L 484.167969 355.3125 L 485.957031 365.226562"/><path fill="#F3D28B" d="M 371.613281 431.738281 L 321.433594 440.769531 L 314.644531 402.976562 L 364.824219 393.945312 L 371.613281 431.738281"/><path fill="#F3D28B" d="M 432.777344 420.734375 L 382.601562 429.765625 L 375.8125 391.972656 L 425.992188 382.941406 L 432.777344 420.734375"/><path fill="#F3D28B" d="M 493.949219 409.726562 L 443.769531 418.757812 L 436.980469 380.960938 L 487.160156 371.933594 L 493.949219 409.726562"/><path fill="#D3D2D2" d="M 469.609375 274.25 L 406.667969 285.574219 L 404.882812 275.660156 L 467.828125 264.332031 L 469.609375 274.25"/><path fill="#D3D2D2" d="M 472.769531 291.824219 L 409.824219 303.148438 L 408.046875 293.230469 L 470.984375 281.90625 L 472.769531 291.824219"/><path fill="#D3D2D2" d="M 475.925781 309.394531 L 412.980469 320.726562 L 411.203125 310.8125 L 474.140625 299.480469 L 475.925781 309.394531"/><path fill="#65BED9" d="M 402.484375 322.613281 L 303.410156 340.4375 L 295.316406 295.378906 L 394.394531 277.546875 L 402.484375 322.613281"/><path fill="#7486A1" d="M 466.09375 254.679688 L 392.664062 267.890625 L 375.324219 171.375 L 448.757812 158.160156 L 466.09375 254.679688"/><path fill="#261617" d="M 437.84375 182.714844 C 436.375 174.511719 426.601562 167.027344 412.113281 169.636719 C 397.617188 172.246094 391.070312 182.667969 392.546875 190.867188 C 392.617188 191.300781 396.710938 209.679688 401.023438 215.457031 C 406.03125 222.148438 415.085938 225.898438 422.003906 224.675781 C 429.570312 223.34375 436.472656 217.738281 439.496094 208.53125 C 442.011719 200.863281 437.84375 182.714844 437.84375 182.714844"/><path fill="#B42026" d="M 396.804688 266.824219 L 461.84375 255.113281 C 461.84375 255.113281 458.65625 233.835938 453.390625 229.613281 C 448.125 225.398438 438.945312 228.496094 433.351562 224.808594 C 427.761719 221.113281 416.269531 223.1875 412.257812 228.605469 C 408.238281 234.019531 400.195312 234.964844 396.167969 239.917969 C 392.136719 244.867188 396.804688 266.824219 396.804688 266.824219"/><path fill="#D5835C" d="M 412.257812 228.605469 C 412.757812 230.558594 420.710938 236.835938 424.496094 236.152344 C 428.292969 235.472656 432.742188 226.875 433.351562 224.808594 C 429.898438 222.445312 431.148438 217.625 431.148438 217.625 L 411.945312 221.082031 C 411.945312 221.082031 414.546875 225.925781 412.257812 228.605469"/><path fill="#F9AA78" d="M 433.945312 183.421875 C 432.464844 175.214844 424.109375 167.476562 412.113281 169.636719 C 400.117188 171.796875 394.972656 181.960938 396.449219 190.164062 C 396.527344 190.597656 401 210.167969 404.25 214.871094 C 407.5 219.574219 417.007812 227.949219 422.738281 226.941406 C 429 225.839844 434.519531 215.5 436.09375 209.136719 C 437.660156 202.777344 433.945312 183.421875 433.945312 183.421875"/><path fill="#F9AA78" d="M 401.820312 203.429688 C 401.113281 201.617188 399.015625 200.199219 396.675781 201.171875 C 394.328125 202.144531 394.734375 204.429688 395.433594 206.234375 C 395.472656 206.324219 397.585938 211.171875 398.480469 212.109375 C 399.378906 213.050781 400.769531 214.886719 402.382812 214.003906 C 403.449219 213.417969 403.75 211.273438 403.757812 209.761719 C 403.765625 208.253906 401.820312 203.429688 401.820312 203.429688"/><path fill="#F9AA78" d="M 434.617188 197.527344 C 434.652344 195.582031 436.117188 193.519531 438.660156 193.613281 C 441.195312 193.710938 441.609375 195.992188 441.582031 197.925781 C 441.582031 198.027344 441.289062 203.3125 440.769531 204.5 C 440.257812 205.691406 439.597656 207.902344 437.773438 207.632812 C 436.570312 207.453125 435.539062 205.558594 435.007812 204.140625 C 434.480469 202.726562 434.617188 197.527344 434.617188 197.527344"/><path fill="#261617" d="M 436.621094 177.878906 C 434.902344 173.578125 429.730469 168.144531 425.804688 169.59375 C 421.859375 165.769531 416.796875 165.589844 411.554688 166.535156 C 399.011719 168.789062 393.519531 179.175781 393.246094 186.777344 C 393.039062 192.632812 394.289062 198.304688 395.285156 202.273438 C 395.96875 201.367188 397.054688 201.003906 398.109375 200.8125 C 398.71875 203.171875 400.027344 210.070312 403.796875 212.910156 C 401.890625 208.828125 404.007812 205.484375 403.019531 201.511719 C 403.765625 200.996094 407.8125 200.863281 411.355469 198.027344 C 415.546875 194.683594 418.4375 189.859375 418.835938 189.613281 C 418.179688 193.289062 412.195312 198.800781 412.683594 198.578125 C 416.964844 196.632812 422.957031 189.957031 424.195312 184.308594 C 427.332031 193.234375 433.183594 194.253906 433.183594 194.253906 C 433.183594 194.253906 436.222656 199.5 436.210938 203.46875 C 437.679688 201.582031 436.425781 196.402344 437.144531 194.25 C 437.328125 193.6875 438.660156 193.613281 439.566406 193.765625 C 439.429688 190.335938 438.804688 183.324219 436.621094 177.878906"/><path fill="#B42026" d="M 434.234375 199.628906 C 434.023438 201.816406 432.757812 202.929688 431.023438 203.355469 C 427.09375 204.324219 424.261719 203.9375 422.738281 202.601562 C 421.183594 201.242188 421.734375 198.695312 421.734375 198.695312 C 421.734375 198.695312 422.003906 197.484375 423.292969 196.972656 C 425.761719 195.992188 429.929688 195.457031 431.492188 195.496094 C 433.207031 195.535156 433.566406 196.078125 433.882812 196.8125 C 434.144531 197.4375 434.359375 198.363281 434.234375 199.628906 Z M 414.203125 204.105469 C 413.261719 205.847656 410.785156 207.183594 406.835938 207.640625 C 405.09375 207.839844 403.550781 207.253906 402.609375 205.3125 C 402.054688 204.183594 401.9375 203.265625 401.96875 202.59375 C 402.007812 201.808594 402.152344 201.1875 403.710938 200.5625 C 405.144531 199.992188 409.160156 199.054688 411.769531 199.109375 C 413.136719 199.140625 413.789062 200.167969 413.789062 200.167969 C 413.789062 200.167969 415.175781 202.316406 414.203125 204.105469 Z M 435.835938 195.785156 C 435.417969 194.8125 434.933594 194.089844 432.648438 194.03125 C 430.554688 193.980469 424.996094 194.6875 421.691406 196.003906 C 421.074219 196.25 420.632812 196.617188 420.320312 196.988281 C 419.894531 196.746094 418.855469 196.292969 417.421875 196.554688 C 415.792969 196.847656 414.960938 197.800781 414.746094 198.085938 C 414.3125 197.8125 413.730469 197.582031 413 197.566406 C 409.445312 197.484375 403.988281 198.761719 402.039062 199.539062 C 399.914062 200.386719 399.714844 201.234375 399.667969 202.296875 C 399.621094 203.207031 399.785156 204.464844 400.527344 205.996094 C 401.820312 208.632812 403.921875 209.433594 406.28125 209.164062 C 411.652344 208.542969 415.019531 206.730469 416.300781 204.363281 C 417.1875 202.726562 416.632812 200.875 416.171875 199.832031 C 416.496094 199.445312 417.121094 198.859375 418.09375 198.683594 C 418.675781 198.578125 419.164062 198.664062 419.542969 198.800781 C 419.417969 199.8125 419.363281 202.132812 420.957031 203.519531 C 422.984375 205.300781 426.773438 205.820312 432.023438 204.53125 C 434.335938 203.960938 436.019531 202.472656 436.308594 199.554688 C 436.476562 197.859375 436.191406 196.621094 435.835938 195.785156"/><path fill="#B42026" d="M 426.117188 213.90625 C 426.117188 213.90625 425.351562 218.261719 421.433594 218.984375 C 417.800781 219.648438 415.25 215.90625 415.25 215.90625 C 415.25 215.90625 416.398438 215.644531 417.609375 215.007812 C 418.640625 214.46875 419.660156 214.246094 420.648438 214.59375 C 421.945312 213.640625 423.105469 213.871094 424.222656 213.960938 C 425.105469 214.039062 426.117188 213.90625 426.117188 213.90625"/><path fill="#FFF" d="M 425.992188 214.015625 C 425.992188 214.015625 425.078125 216.761719 421.152344 217.464844 C 417.519531 218.121094 415.464844 215.910156 415.464844 215.910156 C 415.464844 215.910156 418.652344 215.550781 420.824219 215.644531 C 423.277344 214.707031 425.992188 214.015625 425.992188 214.015625"/><path fill="#D5835C" d="M 422.695312 208.597656 L 420.136719 211.863281 L 417.96875 199.796875 Z M 422.695312 208.597656"/><path fill="#261617" d="M 429.277344 198.855469 C 429.472656 199.953125 428.75 200.996094 427.660156 201.191406 C 426.5625 201.386719 425.515625 200.664062 425.316406 199.570312 C 425.121094 198.472656 425.851562 197.429688 426.945312 197.234375 C 428.039062 197.039062 429.082031 197.761719 429.277344 198.855469"/><path fill="#261617" d="M 427.855469 197.621094 C 429.296875 197.363281 430.65625 197.375 431.703125 197.617188 C 430.953125 196.828125 429.394531 196.453125 427.699219 196.761719 C 426.003906 197.0625 424.671875 197.960938 424.246094 198.960938 C 425.144531 198.371094 426.402344 197.878906 427.855469 197.621094"/><path fill="#261617" d="M 408.035156 202.679688 C 408.234375 203.773438 409.28125 204.5 410.371094 204.304688 C 411.460938 204.105469 412.191406 203.058594 411.996094 201.96875 C 411.796875 200.875 410.75 200.152344 409.660156 200.339844 C 408.566406 200.542969 407.839844 201.582031 408.035156 202.679688"/><path fill="#261617" d="M 408.941406 201.027344 C 407.492188 201.285156 406.230469 201.777344 405.335938 202.363281 C 405.757812 201.367188 407.085938 200.472656 408.789062 200.160156 C 410.484375 199.859375 412.042969 200.234375 412.789062 201.019531 C 411.746094 200.78125 410.390625 200.761719 408.941406 201.027344"/><path fill="#261617" d="M 427.808594 190.535156 C 426.015625 190.367188 423.96875 190.894531 423.816406 191.105469 C 423.664062 191.316406 423.433594 192.601562 423.789062 192.6875 C 424.148438 192.78125 424.980469 191.863281 427.570312 191.863281 C 429.292969 191.867188 431.582031 192.945312 432.316406 193.480469 C 431.582031 192.21875 430.082031 190.761719 427.808594 190.535156"/><path fill="#261617" d="M 405.457031 194.5625 C 407.078125 193.765625 409.183594 193.550781 409.398438 193.699219 C 409.613281 193.847656 410.277344 194.964844 409.972656 195.175781 C 409.667969 195.386719 408.566406 194.816406 406.144531 195.726562 C 404.523438 196.332031 402.761719 198.136719 402.25 198.890625 C 402.507812 197.453125 403.398438 195.5625 405.457031 194.5625"/><path fill="#010101" d="M 404.675781 809.351562 C 296.632812 809.351562 194.898438 767.300781 118.554688 690.796875 C 42.050781 614.453125 0 512.71875 0 404.675781 C 0 296.632812 42.050781 194.898438 118.554688 118.554688 C 194.898438 42.050781 296.632812 0 404.675781 0 C 512.71875 0 614.453125 42.050781 690.796875 118.554688 C 767.300781 195.058594 809.351562 296.632812 809.351562 404.675781 C 809.351562 512.71875 767.300781 614.453125 690.796875 690.796875 C 614.453125 767.300781 512.71875 809.351562 404.675781 809.351562 Z M 404.675781 24.261719 C 303.101562 24.261719 207.515625 63.886719 135.699219 135.699219 C 63.886719 207.515625 24.261719 303.101562 24.261719 404.675781 C 24.261719 506.25 63.886719 601.839844 135.699219 673.652344 C 207.515625 745.464844 303.101562 785.089844 404.675781 785.089844 C 506.25 785.089844 601.839844 745.464844 673.652344 673.652344 C 745.464844 601.839844 785.089844 506.25 785.089844 404.675781 C 785.089844 303.101562 745.464844 207.515625 673.652344 135.699219 C 601.839844 63.886719 506.25 24.261719 404.675781 24.261719 Z M 404.675781 24.261719"/><path fill="#010101" d="M 404.6875 792.953125 C 301.027344 792.953125 203.417969 752.605469 130.171875 679.207031 C 56.773438 605.960938 16.425781 508.351562 16.425781 404.6875 C 16.425781 301.027344 56.773438 203.417969 130.171875 130.171875 C 203.417969 56.773438 301.027344 16.425781 404.6875 16.425781 C 508.351562 16.425781 605.960938 56.773438 679.207031 130.171875 C 752.605469 203.574219 792.953125 301.027344 792.953125 404.6875 C 792.953125 508.351562 752.605469 605.960938 679.207031 679.207031 C 605.960938 752.605469 508.351562 792.953125 404.6875 792.953125 Z M 404.6875 39.703125 C 307.234375 39.703125 215.523438 77.722656 146.621094 146.621094 C 77.722656 215.523438 39.703125 307.234375 39.703125 404.6875 C 39.703125 502.144531 77.722656 593.855469 146.621094 662.757812 C 215.523438 731.65625 307.234375 769.675781 404.6875 769.675781 C 502.144531 769.675781 593.855469 731.65625 662.757812 662.757812 C 731.65625 593.855469 769.675781 502.144531 769.675781 404.6875 C 769.675781 307.234375 731.65625 215.523438 662.757812 146.621094 C 593.855469 77.722656 502.144531 39.703125 404.6875 39.703125 Z M 404.6875 39.703125"/><path fill="#010101" d="M 156 644.265625 C 114.578125 644.265625 81 677.84375 81 719.265625 C 81 760.6875 114.578125 794.265625 156 794.265625 C 197.421875 794.265625 231 760.6875 231 719.265625 C 231 677.84375 197.421875 644.265625 156 644.265625 Z M 156 644.265625"/><g fill="#D1FDFF"><use x="131.084" y="767.879" xmlns:xlink="http://www.w3.org/1999/xlink" xlink:href="#e" xlink:type="simple" xlink:actuate="onLoad" xlink:show="embed"/></g><g clip-path="url(#f)"><path d="M 247.777344 638.453125 C 255.425781 670.539062 272.765625 698.886719 298 720.511719 C 311.136719 731.691406 318.375 746.5625 318.375 762.375 C 318.375 779.226562 332.078125 792.933594 348.925781 792.933594 L 494.90625 792.933594 C 511.753906 792.933594 525.460938 779.226562 525.460938 762.375 L 525.460938 759.417969 C 525.460938 748.292969 529.78125 737.648438 537.335938 730.199219 C 558.308594 709.457031 569.066406 683.269531 571.210938 647.320312 L 574.179688 507.378906 C 574.96875 492.417969 563.570312 471.71875 547.679688 467.457031 C 543.574219 466.359375 539.476562 465.796875 535.507812 465.796875 C 527.3125 465.796875 520.269531 468.117188 514.410156 471.578125 C 508.773438 460.125 496.410156 451.605469 482.4375 450.789062 L 475.214844 450.273438 L 474.152344 450.253906 C 463.71875 450.253906 455.511719 455.386719 449.625 461.058594 C 442.105469 449.773438 427.863281 442.65625 415.375 442.65625 C 414.8125 442.65625 414.246094 442.667969 413.621094 442.699219 L 408.058594 443.007812 C 402.832031 443.304688 397.398438 444.878906 392.359375 447.480469 L 391.863281 425.742188 C 425.714844 408.972656 447.328125 374.546875 447.328125 336.519531 C 447.328125 327.0625 446 317.703125 443.390625 308.695312 C 441.960938 303.785156 436.824219 300.945312 431.910156 302.382812 C 427 303.808594 424.171875 308.949219 425.597656 313.867188 C 427.722656 321.191406 428.800781 328.816406 428.800781 336.519531 C 428.800781 364.464844 414.457031 390.027344 391.390625 404.78125 L 390.042969 345.890625 C 390.035156 345.640625 390.023438 345.390625 390.007812 345.140625 C 387.949219 320.574219 369.046875 305.375 352.710938 305.375 C 352.199219 305.375 351.683594 305.386719 351.414062 305.402344 L 343.195312 305.695312 C 323.449219 306.800781 307.078125 329.476562 307.523438 346.742188 L 306.535156 406.273438 C 296.824219 400.496094 288.378906 392.75 281.761719 383.445312 C 278.800781 379.285156 273.023438 378.300781 268.84375 381.261719 C 264.675781 384.226562 263.699219 390.011719 266.65625 394.183594 C 276.78125 408.421875 290.414062 419.671875 306.183594 426.964844 L 304.015625 557.207031 L 280.175781 508.558594 C 280.007812 508.21875 279.832031 507.894531 279.632812 507.570312 C 268.535156 489.335938 248.359375 478.007812 226.984375 478.007812 C 216.9375 478.007812 206.925781 480.523438 198.039062 485.273438 C 192.480469 488.242188 190.054688 494.925781 192.398438 500.777344 Z M 227.003906 502.710938 C 239.835938 502.710938 251.484375 509.152344 258.277344 519.96875 L 292.214844 589.210938 C 296.554688 598.054688 307.417969 602.65625 316.785156 599.59375 C 328.753906 595.691406 328.472656 583.105469 328.371094 579.140625 L 332.226562 346.625 C 332.058594 340.058594 339.964844 330.605469 344.332031 330.359375 L 352.71875 330.0625 C 356.601562 330.0625 364.296875 335.828125 365.359375 346.847656 L 368.605469 489.144531 C 368.75 495.324219 373.429688 500.441406 379.570312 501.136719 C 385.703125 501.839844 391.40625 497.875 392.925781 491.886719 L 395.601562 481.300781 C 395.835938 480.386719 395.960938 479.445312 395.976562 478.507812 C 396.066406 473.886719 403.382812 468.007812 409.449219 467.660156 L 415.375 467.347656 C 422.039062 467.347656 429.777344 473.34375 430.203125 477.5625 C 430.273438 478.242188 430.394531 478.921875 430.582031 479.582031 L 434.136719 492.59375 C 435.210938 496.527344 438.164062 499.675781 442.019531 501.011719 C 443.316406 501.457031 444.957031 501.734375 446.328125 501.734375 C 451.769531 501.734375 458.6875 498.835938 461.558594 485.4375 C 463.820312 481.703125 469.136719 474.945312 473.898438 474.925781 L 480.832031 475.433594 C 486.917969 475.789062 492.800781 480.433594 492.957031 485.15625 L 493.597656 499.21875 C 493.859375 504.898438 497.984375 509.617188 503.566406 510.722656 C 509.15625 511.820312 514.773438 508.917969 517.183594 503.773438 C 517.4375 503.230469 523.515625 490.492188 535.519531 490.492188 C 537.328125 490.492188 539.269531 490.761719 541.289062 491.308594 C 544.152344 492.085938 549.808594 500.640625 549.507812 506.453125 L 546.535156 646.3125 C 544.800781 675.351562 536.359375 696.421875 519.988281 712.613281 C 507.765625 724.65625 500.761719 741.710938 500.761719 759.410156 L 500.761719 762.367188 C 500.761719 765.59375 498.136719 768.21875 494.914062 768.21875 L 348.917969 768.21875 C 345.695312 768.21875 343.070312 765.59375 343.070312 762.367188 C 343.070312 739.527344 332.472656 717.40625 314.03125 701.707031 C 292.613281 683.355469 277.945312 659.222656 271.609375 631.917969 C 271.46875 631.296875 271.277344 630.691406 271.035156 630.101562 L 220.085938 503.371094 C 222.371094 502.9375 224.6875 502.710938 227.003906 502.710938 Z M 227.003906 502.710938"/></g><path d="M 260.613281 369.214844 C 261.40625 369.214844 262.210938 369.109375 263.019531 368.894531 C 267.960938 367.570312 270.894531 362.488281 269.566406 357.546875 C 267.738281 350.726562 266.8125 343.648438 266.8125 336.507812 C 266.8125 291.84375 303.164062 255.515625 347.84375 255.515625 C 373.925781 255.515625 398.566406 268.199219 413.75 289.4375 C 416.730469 293.597656 422.515625 294.5625 426.679688 291.585938 C 430.839844 288.609375 431.804688 282.820312 428.828125 278.65625 C 410.15625 252.5625 379.890625 236.984375 347.84375 236.984375 C 292.949219 236.984375 248.285156 281.628906 248.285156 336.5 C 248.285156 345.257812 249.425781 353.957031 251.675781 362.34375 C 252.78125 366.484375 256.523438 369.214844 260.613281 369.214844 Z M 260.613281 369.214844"/></svg>