<svg xmlns="http://www.w3.org/2000/svg" xmlns:xlink="http://www.w3.org/1999/xlink" width="810" viewBox="0 0 810 810" height="810" version="1.0"><defs><g id="a"><path d="M 16.578125 0 L 16.578125 -74.453125 L 2.390625 -68.703125 L 2.390625 -86.390625 L 21.5 -96.65625 L 35.96875 -96.65625 L 35.96875 0 Z M 16.578125 0"/></g><g id="c"><path d="M 8.96875 0 L 8.96875 -40.28125 L 1.296875 -37.15625 L 1.296875 -46.734375 L 11.625 -52.28125 L 19.453125 -52.28125 L 19.453125 0 Z M 8.96875 0"/></g><g id="d"><path d="M 13.140625 -9.203125 L 31.390625 -9.203125 L 31.390625 0 L 2.8125 0 L 2.8125 -6.6875 C 2.8125 -11.550781 2.910156 -15.082031 3.109375 -17.28125 C 3.316406 -19.488281 3.828125 -21.289062 4.640625 -22.6875 C 5.453125 -24.082031 6.789062 -25.285156 8.65625 -26.296875 L 17.09375 -30.859375 C 18.207031 -31.460938 19.019531 -31.992188 19.53125 -32.453125 C 20.039062 -32.910156 20.40625 -33.503906 20.625 -34.234375 C 20.851562 -34.972656 20.96875 -36.078125 20.96875 -37.546875 C 20.96875 -39.523438 20.765625 -40.929688 20.359375 -41.765625 C 19.960938 -42.597656 19.304688 -43.128906 18.390625 -43.359375 C 17.484375 -43.585938 15.988281 -43.703125 13.90625 -43.703125 C 11.675781 -43.703125 8.179688 -43.472656 3.421875 -43.015625 L 3.421875 -51.53125 C 5.140625 -51.9375 7.265625 -52.265625 9.796875 -52.515625 C 12.335938 -52.765625 14.671875 -52.890625 16.796875 -52.890625 C 19.941406 -52.890625 22.523438 -52.585938 24.546875 -51.984375 C 26.578125 -51.378906 28.222656 -50.007812 29.484375 -47.875 C 30.753906 -45.75 31.390625 -42.554688 31.390625 -38.296875 C 31.390625 -33.835938 30.867188 -30.59375 29.828125 -28.5625 C 28.785156 -26.539062 27.148438 -24.945312 24.921875 -23.78125 C 23.097656 -22.875 20.085938 -21.28125 15.890625 -19 C 14.773438 -18.4375 14.0625 -17.828125 13.75 -17.171875 C 13.5 -16.617188 13.332031 -15.875 13.25 -14.9375 C 13.175781 -14 13.140625 -12.515625 13.140625 -10.484375 Z M 13.140625 -9.203125"/></g><g id="e"><path d="M 14.8125 0.609375 C 12.945312 0.609375 10.796875 0.476562 8.359375 0.21875 C 5.929688 -0.03125 3.78125 -0.359375 1.90625 -0.765625 L 1.90625 -9.203125 C 5.800781 -8.796875 9.347656 -8.59375 12.546875 -8.59375 C 14.617188 -8.59375 16.148438 -8.71875 17.140625 -8.96875 C 18.128906 -9.21875 18.847656 -9.785156 19.296875 -10.671875 C 19.753906 -11.566406 19.984375 -13 19.984375 -14.96875 C 19.984375 -16.945312 19.804688 -18.429688 19.453125 -19.421875 C 19.097656 -20.410156 18.523438 -21.066406 17.734375 -21.390625 C 16.953125 -21.722656 15.800781 -21.890625 14.28125 -21.890625 L 7.140625 -21.890625 L 7.140625 -31.015625 L 14.28125 -31.015625 C 15.707031 -31.015625 16.773438 -31.148438 17.484375 -31.421875 C 18.191406 -31.703125 18.707031 -32.296875 19.03125 -33.203125 C 19.363281 -34.117188 19.53125 -35.539062 19.53125 -37.46875 C 19.53125 -39.394531 19.328125 -40.785156 18.921875 -41.640625 C 18.515625 -42.503906 17.816406 -43.0625 16.828125 -43.3125 C 15.847656 -43.570312 14.265625 -43.703125 12.078125 -43.703125 C 9.703125 -43.703125 6.332031 -43.5 1.96875 -43.09375 L 1.96875 -51.53125 C 3.84375 -51.9375 5.984375 -52.265625 8.390625 -52.515625 C 10.804688 -52.765625 12.945312 -52.890625 14.8125 -52.890625 C 18.46875 -52.890625 21.394531 -52.457031 23.59375 -51.59375 C 25.800781 -50.738281 27.421875 -49.332031 28.453125 -47.375 C 29.492188 -45.425781 30.015625 -42.757812 30.015625 -39.375 C 30.015625 -35.570312 29.441406 -32.679688 28.296875 -30.703125 C 27.160156 -28.722656 25.429688 -27.429688 23.109375 -26.828125 L 23.109375 -26.53125 C 25.640625 -25.863281 27.5 -24.601562 28.6875 -22.75 C 29.875 -20.90625 30.46875 -17.90625 30.46875 -13.75 C 30.46875 -10.3125 29.972656 -7.550781 28.984375 -5.46875 C 28.003906 -3.394531 26.375 -1.863281 24.09375 -0.875 C 21.8125 0.113281 18.71875 0.609375 14.8125 0.609375 Z M 14.8125 0.609375"/></g><g id="f"><path d="M 19.453125 0 L 19.453125 -10.40625 L 1.59375 -10.40625 L 1.59375 -18.390625 L 12.15625 -52.28125 L 23.03125 -52.28125 L 12.015625 -19.53125 L 19.53125 -19.53125 L 22.34375 -32.828125 L 29.875 -32.828125 L 29.875 -19.53125 L 34.28125 -19.53125 L 34.28125 -10.40625 L 29.875 -10.40625 L 29.875 0 Z M 19.453125 0"/></g><clipPath id="b"><path d="M 160.464844 161 L 649.464844 161 L 649.464844 699.414062 L 160.464844 699.414062 Z M 160.464844 161"/></clipPath></defs><path fill="#DCFFFF" d="M 404.882812 16.007812 C 190.113281 16.007812 16.007812 190.113281 16.007812 404.882812 C 16.007812 619.652344 190.113281 793.757812 404.882812 793.757812 C 619.652344 793.757812 793.757812 619.652344 793.757812 404.882812 C 793.757812 190.113281 619.652344 16.007812 404.882812 16.007812 Z M 404.882812 16.007812"/><path fill="#010101" d="M 404.675781 809.351562 C 296.632812 809.351562 194.898438 767.300781 118.554688 690.796875 C 42.050781 614.453125 0 512.71875 0 404.675781 C 0 296.632812 42.050781 194.898438 118.554688 118.554688 C 194.898438 42.050781 296.632812 0 404.675781 0 C 512.71875 0 614.453125 42.050781 690.796875 118.554688 C 767.300781 195.058594 809.351562 296.632812 809.351562 404.675781 C 809.351562 512.71875 767.300781 614.453125 690.796875 690.796875 C 614.453125 767.300781 512.71875 809.351562 404.675781 809.351562 Z M 404.675781 24.261719 C 303.101562 24.261719 207.515625 63.886719 135.699219 135.699219 C 63.886719 207.515625 24.261719 303.101562 24.261719 404.675781 C 24.261719 506.25 63.886719 601.839844 135.699219 673.652344 C 207.515625 745.464844 303.101562 785.089844 404.675781 785.089844 C 506.25 785.089844 601.839844 745.464844 673.652344 673.652344 C 745.464844 601.839844 785.089844 506.25 785.089844 404.675781 C 785.089844 303.101562 745.464844 207.515625 673.652344 135.699219 C 601.839844 63.886719 506.25 24.261719 404.675781 24.261719 Z M 404.675781 24.261719"/><path fill="#010101" d="M 404.6875 792.953125 C 301.027344 792.953125 203.417969 752.605469 130.171875 679.207031 C 56.773438 605.960938 16.425781 508.351562 16.425781 404.6875 C 16.425781 301.027344 56.773438 203.417969 130.171875 130.171875 C 203.417969 56.773438 301.027344 16.425781 404.6875 16.425781 C 508.351562 16.425781 605.960938 56.773438 679.207031 130.171875 C 752.605469 203.574219 792.953125 301.027344 792.953125 404.6875 C 792.953125 508.351562 752.605469 605.960938 679.207031 679.207031 C 605.960938 752.605469 508.351562 792.953125 404.6875 792.953125 Z M 404.6875 39.703125 C 307.234375 39.703125 215.523438 77.722656 146.621094 146.621094 C 77.722656 215.523438 39.703125 307.234375 39.703125 404.6875 C 39.703125 502.144531 77.722656 593.855469 146.621094 662.757812 C 215.523438 731.65625 307.234375 769.675781 404.6875 769.675781 C 502.144531 769.675781 593.855469 731.65625 662.757812 662.757812 C 731.65625 593.855469 769.675781 502.144531 769.675781 404.6875 C 769.675781 307.234375 731.65625 215.523438 662.757812 146.621094 C 593.855469 77.722656 502.144531 39.703125 404.6875 39.703125 Z M 404.6875 39.703125"/><path fill="#010101" d="M 156 644.265625 C 114.578125 644.265625 81 677.84375 81 719.265625 C 81 760.6875 114.578125 794.265625 156 794.265625 C 197.421875 794.265625 231 760.6875 231 719.265625 C 231 677.84375 197.421875 644.265625 156 644.265625 Z M 156 644.265625"/><g fill="#D1FDFF"><use x="131.084" y="767.879" xmlns:xlink="http://www.w3.org/1999/xlink" xlink:href="#a" xlink:type="simple" xlink:actuate="onLoad" xlink:show="embed"/></g><g clip-path="url(#b)"><path d="M 233.816406 161.015625 C 227.054688 161.015625 221.589844 166.496094 221.589844 173.25 L 221.589844 344.527344 C 221.589844 351.277344 227.054688 356.757812 233.816406 356.757812 L 258.410156 356.757812 L 258.410156 344.527344 C 258.410156 327.289062 265.738281 310.757812 278.515625 299.175781 C 284.46875 293.777344 291.414062 289.761719 298.859375 287.082031 L 262.539062 255.949219 L 278.441406 237.359375 L 312.179688 266.296875 L 359.21875 213.992188 L 377.390625 230.382812 L 328.871094 284.3125 C 358.148438 288.960938 380.660156 315.402344 380.660156 346.269531 L 380.660156 356.757812 L 404.964844 356.757812 C 411.726562 356.757812 417.191406 351.277344 417.191406 344.527344 L 417.191406 173.25 C 417.191406 166.496094 411.726562 161.015625 404.964844 161.015625 Z M 466.089844 161.015625 C 459.332031 161.015625 453.867188 166.496094 453.867188 173.25 L 453.867188 344.527344 C 453.867188 351.277344 459.332031 356.757812 466.089844 356.757812 L 637.242188 356.757812 C 644.003906 356.757812 649.464844 351.277344 649.464844 344.527344 L 649.464844 173.25 C 649.464844 166.496094 644.003906 161.015625 637.242188 161.015625 Z M 323.285156 308.015625 C 313.003906 307.011719 302.59375 310.359375 294.917969 317.308594 C 287.253906 324.257812 282.859375 334.175781 282.859375 344.527344 L 282.859375 555.65625 L 224.3125 497.066406 C 210.460938 483.21875 188.382812 481.523438 174.003906 493.292969 C 165.949219 499.886719 161.027344 509.609375 160.515625 519.933594 C 160 530.285156 163.886719 540.417969 171.210938 547.746094 L 299.835938 676.109375 C 314.835938 691.070312 334.761719 699.308594 355.949219 699.308594 L 460.121094 699.308594 C 503.9375 699.308594 539.585938 663.636719 539.585938 619.789062 L 539.585938 505.3125 C 539.585938 485.699219 525.117188 468.914062 506.660156 467.054688 C 496.363281 466.050781 485.96875 469.402344 478.292969 476.351562 C 478.269531 476.375 478.234375 476.386719 478.199219 476.421875 C 476.230469 458.769531 462.601562 444.300781 445.535156 442.589844 C 435.226562 441.609375 424.84375 444.933594 417.167969 451.882812 C 416.300781 452.664062 415.453125 453.5 414.683594 454.367188 C 409.695312 441.414062 398.160156 431.722656 384.410156 430.355469 C 374.175781 429.375 363.851562 432.640625 356.1875 439.503906 L 356.1875 346.269531 C 356.1875 326.660156 341.730469 309.863281 323.285156 308.015625 Z M 323.285156 308.015625"/></g><g><use x="586.223" y="456.625" xmlns:xlink="http://www.w3.org/1999/xlink" xlink:href="#c" xlink:type="simple" xlink:actuate="onLoad" xlink:show="embed"/></g><g><use x="609.781" y="456.625" xmlns:xlink="http://www.w3.org/1999/xlink" xlink:href="#d" xlink:type="simple" xlink:actuate="onLoad" xlink:show="embed"/></g><g><use x="643.98" y="456.625" xmlns:xlink="http://www.w3.org/1999/xlink" xlink:href="#e" xlink:type="simple" xlink:actuate="onLoad" xlink:show="embed"/></g><g><use x="677.19" y="456.625" xmlns:xlink="http://www.w3.org/1999/xlink" xlink:href="#f" xlink:type="simple" xlink:actuate="onLoad" xlink:show="embed"/></g></svg>