<svg xmlns="http://www.w3.org/2000/svg" width="30" viewBox="0 0 30 30" height="30" version="1.0"><defs><clipPath id="a"><path d="M 1.644531 1.160156 L 28.5 1.160156 L 28.5 28.015625 L 1.644531 28.015625 Z M 1.644531 1.160156"/></clipPath></defs><g clip-path="url(#a)"><path fill="#427C80" d="M 15.0625 1.171875 C 7.660156 1.171875 1.644531 7.1875 1.644531 14.589844 C 1.644531 16.859375 2.207031 19.089844 3.3125 21.058594 L 2.164062 25.257812 C 1.96875 25.929688 2.164062 26.621094 2.660156 27.117188 C 3.160156 27.617188 3.851562 27.8125 4.523438 27.636719 L 8.894531 26.492188 C 10.796875 27.484375 12.917969 28.003906 15.082031 28.003906 C 22.484375 28.003906 28.5 21.988281 28.5 14.589844 C 28.5 10.996094 27.113281 7.640625 24.582031 5.109375 C 22.03125 2.578125 18.652344 1.171875 15.0625 1.171875 Z M 15.0625 2.46875 C 18.308594 2.46875 21.359375 3.726562 23.632812 6.019531 C 25.925781 8.3125 27.203125 11.363281 27.179688 14.589844 C 27.179688 21.273438 21.75 26.707031 15.0625 26.707031 C 13.050781 26.707031 11.035156 26.1875 9.261719 25.234375 C 9.175781 25.191406 9.066406 25.148438 8.960938 25.148438 C 8.894531 25.148438 8.851562 25.148438 8.785156 25.171875 L 4.175781 26.382812 C 3.851562 26.46875 3.636719 26.296875 3.550781 26.210938 C 3.464844 26.121094 3.289062 25.90625 3.375 25.582031 L 4.589844 21.125 C 4.632812 20.949219 4.609375 20.777344 4.523438 20.625 C 3.484375 18.808594 2.945312 16.710938 2.945312 14.589844 C 2.945312 7.902344 8.375 2.46875 15.0625 2.46875 Z M 15.0625 4.417969 C 9.457031 4.417969 4.890625 8.960938 4.890625 14.589844 C 4.890625 16.386719 5.367188 18.136719 6.253906 19.675781 C 6.601562 20.28125 6.6875 20.992188 6.515625 21.664062 L 5.886719 23.9375 L 8.308594 23.308594 C 8.527344 23.246094 8.742188 23.222656 8.960938 23.222656 C 9.390625 23.222656 9.824219 23.332031 10.191406 23.546875 C 11.6875 24.328125 13.351562 24.757812 15.0625 24.757812 C 20.667969 24.757812 25.230469 20.195312 25.230469 14.589844 C 25.230469 11.863281 24.171875 9.308594 22.246094 7.382812 C 20.339844 5.476562 17.789062 4.417969 15.0625 4.417969 Z M 10.539062 8.679688 L 11.144531 8.679688 C 11.382812 8.679688 11.621094 8.703125 11.859375 9.222656 C 12.140625 9.847656 12.769531 11.429688 12.832031 11.582031 C 12.917969 11.730469 12.960938 11.925781 12.855469 12.144531 C 12.746094 12.359375 12.703125 12.488281 12.53125 12.683594 C 12.378906 12.878906 12.183594 13.097656 12.054688 13.246094 C 11.902344 13.398438 11.730469 13.570312 11.925781 13.894531 C 12.117188 14.222656 12.746094 15.257812 13.699219 16.101562 C 14.910156 17.183594 15.949219 17.53125 16.273438 17.683594 C 16.597656 17.835938 16.769531 17.8125 16.964844 17.597656 C 17.160156 17.378906 17.765625 16.667969 17.984375 16.339844 C 18.199219 16.015625 18.417969 16.082031 18.699219 16.191406 C 19 16.296875 20.558594 17.078125 20.882812 17.230469 C 21.207031 17.378906 21.421875 17.46875 21.488281 17.597656 C 21.574219 17.769531 21.574219 18.398438 21.316406 19.15625 C 21.054688 19.890625 19.757812 20.625 19.152344 20.667969 C 18.566406 20.710938 18.027344 20.929688 15.320312 19.867188 C 12.074219 18.59375 10.019531 15.257812 9.867188 15.042969 C 9.714844 14.828125 8.570312 13.3125 8.570312 11.734375 C 8.570312 10.152344 9.390625 9.394531 9.695312 9.070312 C 9.996094 8.746094 10.324219 8.679688 10.539062 8.679688 Z M 10.539062 8.679688"/></g></svg>